<svg width="57" height="21" viewBox="0 0 57 21" fill="none" xmlns="http://www.w3.org/2000/svg">
<path d="M5.35895 20.1941C4.79162 20.1941 4.38528 20.0714 4.13995 19.8261C3.89462 19.5654 3.77195 19.0824 3.77195 18.3771C3.77195 17.9018 3.81795 17.3268 3.90995 16.6521C4.00195 15.9774 4.16295 14.9578 4.39295 13.5931C4.42362 13.4091 4.54628 12.6654 4.76095 11.3621C4.97562 10.0434 5.16728 8.66343 5.33595 7.2221C5.48928 5.99543 5.56595 5.07543 5.56595 4.4621C5.56595 3.7721 5.31295 3.4271 4.80695 3.4271C4.42362 3.4271 3.94062 3.6341 3.35795 4.0481C2.79062 4.44677 2.17728 5.09077 1.51795 5.9801C1.30328 6.27143 1.06562 6.4171 0.804949 6.4171C0.590283 6.4171 0.398616 6.31743 0.229949 6.1181C0.0766159 5.90343 -5.07823e-05 5.66577 -5.07823e-05 5.4051C-5.07823e-05 5.14443 0.0459492 4.8991 0.137949 4.6691C0.229949 4.42377 0.398616 4.13243 0.643949 3.7951C1.39528 2.76777 2.23095 1.9781 3.15095 1.4261C4.07095 0.858767 5.03695 0.5751 6.04895 0.5751C6.89228 0.5751 7.52095 0.835767 7.93495 1.3571C8.36428 1.87843 8.57895 2.63743 8.57895 3.6341C8.57895 4.52343 8.45628 5.81143 8.21095 7.4981C8.97762 5.22877 9.95128 3.51143 11.1319 2.3461C12.3126 1.16543 13.7003 0.5751 15.295 0.5751C16.5523 0.5751 17.4953 0.935434 18.124 1.6561C18.768 2.36143 19.09 3.3121 19.09 4.5081C19.09 5.18277 18.9903 6.0031 18.791 6.9691L17.388 13.5471C17.2346 14.3138 17.158 14.9731 17.158 15.5251C17.158 16.1691 17.3036 16.6521 17.595 16.9741C17.9016 17.2961 18.3233 17.4571 18.86 17.4571C19.366 17.4571 19.8566 17.2884 20.3319 16.9511C20.8226 16.6138 21.3976 16.0541 22.057 15.2721C22.241 15.0574 22.448 14.9501 22.678 14.9501C22.8773 14.9501 23.0306 15.0421 23.1379 15.2261C23.2606 15.4101 23.3219 15.6631 23.3219 15.9851C23.3219 16.5831 23.1763 17.0584 22.8849 17.4111C22.0876 18.3771 21.2979 19.0824 20.5159 19.5271C19.7339 19.9718 18.9136 20.1941 18.055 20.1941C16.7516 20.1941 15.732 19.8108 14.9959 19.0441C14.26 18.2621 13.892 17.2194 13.892 15.9161C13.892 15.4101 13.9303 14.8581 14.007 14.2601C14.0989 13.6621 14.2446 12.9031 14.4439 11.9831L15.364 7.7741C15.3946 7.6361 15.4483 7.39077 15.5249 7.0381C15.6016 6.68543 15.6629 6.35577 15.709 6.0491C15.755 5.7271 15.778 5.41277 15.778 5.1061C15.778 4.61543 15.64 4.22443 15.364 3.9331C15.088 3.64177 14.697 3.4961 14.191 3.4961C13.271 3.4961 12.351 3.98677 11.4309 4.9681C10.5109 5.94943 9.65995 7.53643 8.87795 9.7291C8.09595 11.9064 7.48262 14.6971 7.03795 18.1011C6.93062 18.8831 6.76962 19.4274 6.55495 19.7341C6.35562 20.0408 5.95695 20.1941 5.35895 20.1941ZM32.7241 13.0181C32.9234 13.0181 33.0768 13.1178 33.1841 13.3171C33.2914 13.5164 33.3451 13.7694 33.3451 14.0761C33.3451 14.8121 33.1228 15.2491 32.6781 15.3871C31.7581 15.7091 30.7461 15.8931 29.6421 15.9391C29.3508 17.2271 28.7758 18.2621 27.9171 19.0441C27.0584 19.8108 26.0848 20.1941 24.9961 20.1941C24.0761 20.1941 23.2864 19.9718 22.6271 19.5271C21.9831 19.0824 21.4924 18.4921 21.1551 17.7561C20.8178 17.0201 20.6491 16.2228 20.6491 15.3641C20.6491 14.1988 20.8714 13.1638 21.3161 12.2591C21.7608 11.3391 22.3741 10.6261 23.1561 10.1201C23.9381 9.59877 24.8044 9.3381 25.7551 9.3381C26.9204 9.3381 27.8558 9.74443 28.5611 10.5571C29.2818 11.3544 29.7034 12.3434 29.8261 13.5241C30.5468 13.4781 31.4054 13.3248 32.4021 13.0641C32.5248 13.0334 32.6321 13.0181 32.7241 13.0181ZM25.1801 17.7561C25.6708 17.7561 26.0924 17.5568 26.4451 17.1581C26.8131 16.7594 27.0584 16.1844 27.1811 15.4331C26.7058 15.1111 26.3378 14.6894 26.0771 14.1681C25.8318 13.6468 25.7091 13.0948 25.7091 12.5121C25.7091 12.2668 25.7321 12.0214 25.7781 11.7761H25.6631C25.0498 11.7761 24.5361 12.0751 24.1221 12.6731C23.7234 13.2558 23.5241 14.0838 23.5241 15.1571C23.5241 16.0004 23.6851 16.6444 24.0071 17.0891C24.3444 17.5338 24.7354 17.7561 25.1801 17.7561ZM41.753 14.9501C41.9524 14.9501 42.1057 15.0421 42.213 15.2261C42.3357 15.4101 42.397 15.6631 42.397 15.9851C42.397 16.5984 42.2514 17.0738 41.96 17.4111C41.3007 18.2238 40.58 18.8908 39.798 19.4121C39.016 19.9334 38.119 20.1941 37.107 20.1941C33.979 20.1941 32.415 17.9938 32.415 13.5931C32.415 12.9184 32.438 12.2361 32.484 11.5461H31.587C31.127 11.5461 30.8127 11.4618 30.644 11.2931C30.4907 11.1244 30.414 10.8561 30.414 10.4881C30.414 9.62943 30.759 9.2001 31.449 9.2001H32.76C33.0207 7.51343 33.4194 5.97243 33.956 4.5771C34.4927 3.18177 35.1367 2.0701 35.888 1.2421C36.6547 0.414101 37.475 0.00010097 38.349 0.00010097C38.993 0.00010097 39.499 0.283768 39.867 0.851101C40.235 1.41843 40.419 2.13143 40.419 2.9901C40.419 5.36677 39.4224 7.43677 37.429 9.2001H40.005C40.2504 9.2001 40.4267 9.25377 40.534 9.3611C40.6414 9.46843 40.695 9.66777 40.695 9.9591C40.695 11.0171 39.8287 11.5461 38.096 11.5461H35.29C35.2594 12.3128 35.244 12.9108 35.244 13.3401C35.244 14.9348 35.428 16.0541 35.796 16.6981C36.1794 17.3421 36.7774 17.6641 37.59 17.6641C38.2494 17.6641 38.832 17.4648 39.338 17.0661C39.844 16.6674 40.442 16.0694 41.132 15.2721C41.316 15.0574 41.523 14.9501 41.753 14.9501ZM37.728 2.2081C37.498 2.2081 37.2374 2.49943 36.946 3.0821C36.67 3.64943 36.4017 4.44677 36.141 5.4741C35.8957 6.4861 35.6887 7.6131 35.52 8.8551C36.4247 8.0731 37.0994 7.1991 37.544 6.2331C38.004 5.25177 38.234 4.36243 38.234 3.5651C38.234 2.66043 38.0654 2.2081 37.728 2.2081ZM50.3223 14.9501C50.5217 14.9501 50.675 15.0421 50.7823 15.2261C50.905 15.4101 50.9663 15.6631 50.9663 15.9851C50.9663 16.5984 50.8207 17.0738 50.5293 17.4111C49.962 18.1011 49.157 18.7374 48.1143 19.3201C47.087 19.9028 45.983 20.1941 44.8023 20.1941C43.1923 20.1941 41.9427 19.7571 41.0533 18.8831C40.164 18.0091 39.7193 16.8131 39.7193 15.2951C39.7193 14.2371 39.9417 13.2558 40.3863 12.3511C40.831 11.4311 41.4443 10.7028 42.2263 10.1661C43.0237 9.62943 43.9207 9.3611 44.9173 9.3611C45.8067 9.3611 46.5197 9.62943 47.0563 10.1661C47.593 10.6874 47.8613 11.4004 47.8613 12.3051C47.8613 13.3631 47.478 14.2754 46.7113 15.0421C45.96 15.7934 44.6797 16.3914 42.8703 16.8361C43.2537 17.5414 43.982 17.8941 45.0553 17.8941C45.7453 17.8941 46.5273 17.6564 47.4013 17.1811C48.2907 16.6904 49.0573 16.0541 49.7013 15.2721C49.8853 15.0574 50.0923 14.9501 50.3223 14.9501ZM44.5263 11.6151C43.959 11.6151 43.476 11.9448 43.0773 12.6041C42.694 13.2634 42.5023 14.0608 42.5023 14.9961V15.0421C43.407 14.8274 44.12 14.5054 44.6413 14.0761C45.1627 13.6468 45.4233 13.1484 45.4233 12.5811C45.4233 12.2898 45.339 12.0598 45.1703 11.8911C45.017 11.7071 44.8023 11.6151 44.5263 11.6151ZM52.9116 20.7001C52.1143 20.7001 51.501 20.5161 51.0716 20.1481C50.6576 19.7801 50.4506 19.3661 50.4506 18.9061C50.4506 18.5074 50.5963 18.1624 50.8876 17.8711C51.179 17.5798 51.6083 17.4341 52.1756 17.4341C52.375 17.4341 52.605 17.4571 52.8656 17.5031C53.1416 17.5338 53.3486 17.5568 53.4866 17.5721C53.4713 17.1734 53.3793 16.7978 53.2106 16.4451C53.0573 16.0924 52.858 15.7551 52.6126 15.4331C52.3673 15.0958 52.1373 14.8044 51.9226 14.5591C51.4473 15.4638 50.972 16.2151 50.4966 16.8131C50.0366 17.4111 49.5306 17.9784 48.9786 18.5151C48.7026 18.7911 48.4113 18.9291 48.1046 18.9291C47.8593 18.9291 47.66 18.8448 47.5066 18.6761C47.3533 18.4921 47.2766 18.2698 47.2766 18.0091C47.2766 17.7024 47.384 17.4188 47.5986 17.1581L47.8976 16.7901C48.741 15.7474 49.3773 14.8888 49.8066 14.2141C50.0826 13.7694 50.3586 13.2404 50.6346 12.6271C50.926 12.0138 51.3016 11.1781 51.7616 10.1201C52.053 9.44543 52.6586 9.1081 53.5786 9.1081C54.008 9.1081 54.307 9.14643 54.4756 9.2231C54.6443 9.29977 54.7286 9.42243 54.7286 9.5911C54.7286 9.6831 54.698 9.82877 54.6366 10.0281C54.5753 10.2274 54.491 10.4268 54.3836 10.6261C54.1076 11.1781 53.9696 11.6458 53.9696 12.0291C53.9696 12.2591 54.0463 12.5121 54.1996 12.7881C54.3683 13.0641 54.6213 13.4091 54.9586 13.8231C55.4493 14.4671 55.8173 15.0191 56.0626 15.4791C56.3233 15.9238 56.4536 16.4144 56.4536 16.9511C56.4536 17.5951 56.3003 18.2084 55.9936 18.7911C55.7023 19.3584 55.2883 19.8184 54.7516 20.1711C54.215 20.5238 53.6016 20.7001 52.9116 20.7001Z" fill="#0E121B"/>
</svg>
